<?xml version="1.0" encoding="UTF-8" standalone="no"?>
<!-- Generator: Adobe Illustrator 20.0.0, SVG Export Plug-In . SVG Version: 6.00 Build 0)  -->

<svg
   xmlns:dc="http://purl.org/dc/elements/1.1/"
   xmlns:cc="http://creativecommons.org/ns#"
   xmlns:rdf="http://www.w3.org/1999/02/22-rdf-syntax-ns#"
   xmlns:svg="http://www.w3.org/2000/svg"
   xmlns="http://www.w3.org/2000/svg"
   xmlns:sodipodi="http://sodipodi.sourceforge.net/DTD/sodipodi-0.dtd"
   xmlns:inkscape="http://www.inkscape.org/namespaces/inkscape"
   version="1.1"
   id="Kinto"
   x="0px"
   y="0px"
   viewBox="0 0 550 140"
   style="enable-background:new 0 0 550 140;"
   xml:space="preserve"
   inkscape:version="0.91 r13725"
   sodipodi:docname="kinto-logo.svg"><metadata
     id="metadata228"><rdf:RDF><cc:Work
         rdf:about=""><dc:format>image/svg+xml</dc:format><dc:type
           rdf:resource="http://purl.org/dc/dcmitype/StillImage" /></cc:Work></rdf:RDF></metadata><defs
     id="defs226" /><sodipodi:namedview
     pagecolor="#ffffff"
     bordercolor="#666666"
     borderopacity="1"
     objecttolerance="10"
     gridtolerance="10"
     guidetolerance="10"
     inkscape:pageopacity="0"
     inkscape:pageshadow="2"
     inkscape:window-width="921"
     inkscape:window-height="480"
     id="namedview224"
     showgrid="false"
     inkscape:zoom="4.7826131"
     inkscape:cx="292.77486"
     inkscape:cy="37.230925"
     inkscape:window-x="0"
     inkscape:window-y="27"
     inkscape:window-maximized="0"
     inkscape:current-layer="Kinto" /><style
     type="text/css"
     id="style3">
	.st0{fill:#999999;}
	.st1{fill:#333333;}
	.st2{fill:url(#SVGID_1_);}
	.st3{fill:url(#SVGID_2_);}
	.st4{fill:url(#SVGID_3_);}
	.st5{fill:url(#SVGID_4_);}
	.st6{fill:url(#SVGID_5_);}
	.st7{fill:url(#SVGID_6_);}
	.st8{fill:url(#SVGID_7_);}
	.st9{fill:url(#SVGID_8_);}
	.st10{fill:url(#SVGID_9_);}
	.st11{opacity:0.47;fill:#E35702;}
	.st12{fill:url(#SVGID_10_);}
	.st13{fill:url(#SVGID_11_);}
	.st14{fill:url(#SVGID_12_);}
	.st15{fill:#EB7808;}
	.st16{fill:#E35702;}
</style><g
     id="g7"><path
       style="fill:#999999"
       inkscape:connector-curvature="0"
       id="path9"
       d="m 275.8,117 c 0,1.1 -0.4,1.9 -1.2,2.5 -0.8,0.6 -1.8,0.9 -3.1,0.9 -1.6,0 -2.8,-0.2 -3.6,-0.5 l 0,-0.9 c 0.9,0.4 2.1,0.6 3.5,0.6 1.1,0 1.9,-0.2 2.5,-0.7 0.6,-0.5 0.9,-1.1 0.9,-1.9 0,-0.5 -0.1,-0.9 -0.3,-1.2 -0.2,-0.3 -0.5,-0.6 -1,-0.9 -0.5,-0.3 -1.1,-0.5 -2,-0.9 -1.3,-0.5 -2.2,-0.9 -2.7,-1.5 -0.5,-0.5 -0.8,-1.2 -0.8,-2.1 0,-1 0.4,-1.7 1.1,-2.4 0.8,-0.6 1.7,-0.9 2.9,-0.9 1.2,0 2.3,0.2 3.4,0.7 l -0.3,0.8 c -1.1,-0.4 -2.1,-0.7 -3.1,-0.7 -0.9,0 -1.7,0.2 -2.3,0.7 -0.6,0.5 -0.8,1 -0.8,1.8 0,0.5 0.1,0.9 0.3,1.2 0.2,0.3 0.5,0.6 0.8,0.8 0.4,0.2 1.1,0.5 2,0.9 1,0.3 1.8,0.7 2.3,1 0.5,0.3 0.9,0.7 1.1,1.1 0.3,0.5 0.4,1 0.4,1.6 z"
       class="st0" /><path
       style="fill:#999999"
       inkscape:connector-curvature="0"
       id="path11"
       d="m 280.8,119.7 c 0.6,0 1,0 1.4,-0.1 l 0,0.7 c -0.4,0.1 -0.9,0.2 -1.5,0.2 -0.8,0 -1.5,-0.2 -1.9,-0.7 -0.4,-0.5 -0.6,-1.2 -0.6,-2.1 l 0,-6.2 -1.4,0 0,-0.5 1.4,-0.4 0.4,-2.2 0.4,0 0,2.3 2.8,0 0,0.8 -2.8,0 0,6 c 0,0.7 0.1,1.3 0.4,1.6 0.3,0.3 0.9,0.6 1.4,0.6 z"
       class="st0" /><path
       style="fill:#999999"
       inkscape:connector-curvature="0"
       id="path13"
       d="m 292.2,115.5 c 0,1.6 -0.4,2.8 -1.1,3.7 -0.8,0.9 -1.8,1.3 -3.1,1.3 -0.8,0 -1.6,-0.2 -2.2,-0.6 -0.6,-0.4 -1.1,-1 -1.5,-1.7 -0.4,-0.7 -0.5,-1.6 -0.5,-2.6 0,-1.6 0.4,-2.8 1.1,-3.6 0.8,-0.9 1.8,-1.3 3.1,-1.3 1.3,0 2.3,0.4 3.1,1.3 0.8,0.8 1.1,2 1.1,3.5 z m -7.5,0 c 0,1.3 0.3,2.3 0.9,3.1 0.6,0.7 1.4,1.1 2.4,1.1 1,0 1.9,-0.4 2.4,-1.1 0.6,-0.7 0.9,-1.8 0.9,-3.1 0,-1.3 -0.3,-2.3 -0.9,-3.1 -0.6,-0.8 -1.4,-1.1 -2.5,-1.1 -1.1,0 -1.9,0.4 -2.4,1.1 -0.5,0.7 -0.8,1.8 -0.8,3.1 z"
       class="st0" /><path
       style="fill:#999999"
       inkscape:connector-curvature="0"
       id="path15"
       d="m 298.6,110.6 c 0.4,0 0.8,0 1.3,0.1 l -0.2,0.8 c -0.4,-0.1 -0.8,-0.1 -1.2,-0.1 -0.8,0 -1.5,0.3 -2,1 -0.5,0.7 -0.8,1.6 -0.8,2.6 l 0,5.3 -0.9,0 0,-9.6 0.7,0 0.1,1.7 0.1,0 c 0.4,-0.7 0.8,-1.2 1.3,-1.5 0.5,-0.2 1,-0.3 1.6,-0.3 z"
       class="st0" /><path
       style="fill:#999999"
       inkscape:connector-curvature="0"
       id="path17"
       d="m 305.8,120.5 c -1.4,0 -2.5,-0.4 -3.2,-1.3 -0.7,-0.9 -1.2,-2.1 -1.2,-3.6 0,-1.5 0.4,-2.7 1.1,-3.7 0.8,-0.9 1.8,-1.4 3,-1.4 1.1,0 2,0.4 2.7,1.2 0.7,0.8 1,1.9 1,3.2 l 0,0.7 -6.9,0 c 0,1.3 0.3,2.3 0.9,3 0.6,0.7 1.5,1 2.6,1 0.5,0 1,0 1.4,-0.1 0.4,-0.1 0.9,-0.2 1.6,-0.5 l 0,0.8 c -0.5,0.2 -1,0.4 -1.5,0.5 -0.5,0.1 -1,0.2 -1.5,0.2 z m -0.3,-9.2 c -0.9,0 -1.7,0.3 -2.2,0.9 -0.6,0.6 -0.9,1.5 -1,2.6 l 5.9,0 c 0,-1.1 -0.2,-2 -0.7,-2.6 -0.5,-0.6 -1.2,-0.9 -2,-0.9 z"
       class="st0" /><path
       style="fill:#999999"
       inkscape:connector-curvature="0"
       id="path19"
       d="m 312.8,118.2 0.1,0.2 c -0.4,1.6 -0.9,3 -1.5,4.2 l -0.6,0 c 0.5,-1.6 0.8,-3.1 1,-4.4 l 1,0 z"
       class="st0" /><path
       style="fill:#999999"
       inkscape:connector-curvature="0"
       id="path21"
       d="m 327.6,117 c 0,1.1 -0.4,1.9 -1.2,2.5 -0.8,0.6 -1.8,0.9 -3.1,0.9 -1.6,0 -2.8,-0.2 -3.6,-0.5 l 0,-0.9 c 0.9,0.4 2.1,0.6 3.5,0.6 1.1,0 1.9,-0.2 2.5,-0.7 0.6,-0.5 0.9,-1.1 0.9,-1.9 0,-0.5 -0.1,-0.9 -0.3,-1.2 -0.2,-0.3 -0.5,-0.6 -1,-0.9 -0.5,-0.3 -1.1,-0.5 -2,-0.9 -1.3,-0.5 -2.2,-0.9 -2.7,-1.5 -0.5,-0.5 -0.8,-1.2 -0.8,-2.1 0,-1 0.4,-1.7 1.1,-2.4 0.8,-0.6 1.7,-0.9 2.9,-0.9 1.2,0 2.3,0.2 3.4,0.7 l -0.3,0.8 c -1.1,-0.4 -2.1,-0.7 -3.1,-0.7 -0.9,0 -1.7,0.2 -2.3,0.7 -0.6,0.5 -0.8,1 -0.8,1.8 0,0.5 0.1,0.9 0.3,1.2 0.2,0.3 0.5,0.6 0.8,0.8 0.4,0.2 1.1,0.5 2,0.9 1,0.3 1.8,0.7 2.3,1 0.5,0.3 0.9,0.7 1.1,1.1 0.3,0.5 0.4,1 0.4,1.6 z"
       class="st0" /><path
       style="fill:#999999"
       inkscape:connector-curvature="0"
       id="path23"
       d="m 328.5,110.7 0.9,0 2,5.4 c 0.6,1.6 1,2.8 1.2,3.3 l 0.1,0 c 0.2,-0.8 0.6,-1.9 1.2,-3.4 l 2,-5.3 0.9,0 -4.3,11.1 c -0.3,0.9 -0.6,1.5 -0.9,1.8 -0.3,0.3 -0.5,0.6 -0.8,0.7 -0.3,0.1 -0.7,0.2 -1.1,0.2 -0.3,0 -0.7,-0.1 -1.1,-0.2 l 0,-0.8 c 0.3,0.1 0.7,0.1 1.1,0.1 0.3,0 0.6,-0.1 0.8,-0.2 0.2,-0.1 0.4,-0.4 0.6,-0.7 0.2,-0.3 0.4,-0.8 0.6,-1.4 0.2,-0.6 0.4,-1.1 0.5,-1.3 l -3.7,-9.3 z"
       class="st0" /><path
       style="fill:#999999"
       inkscape:connector-curvature="0"
       id="path25"
       d="m 345,120.3 0,-6.2 c 0,-1 -0.2,-1.7 -0.6,-2.1 -0.4,-0.4 -1,-0.7 -1.9,-0.7 -1.1,0 -2,0.3 -2.5,0.9 -0.5,0.6 -0.8,1.5 -0.8,2.8 l 0,5.3 -0.9,0 0,-9.6 0.7,0 0.2,1.3 0.1,0 c 0.6,-1 1.7,-1.5 3.3,-1.5 2.2,0 3.3,1.2 3.3,3.5 l 0,6.2 -0.9,0 z"
       class="st0" /><path
       style="fill:#999999"
       inkscape:connector-curvature="0"
       id="path27"
       d="m 352.8,120.5 c -1.4,0 -2.4,-0.4 -3.2,-1.3 -0.8,-0.9 -1.2,-2.1 -1.2,-3.6 0,-1.6 0.4,-2.8 1.2,-3.7 0.8,-0.9 1.9,-1.3 3.3,-1.3 0.8,0 1.6,0.1 2.4,0.4 l -0.2,0.8 c -0.8,-0.3 -1.5,-0.4 -2.2,-0.4 -1.2,0 -2.1,0.4 -2.7,1.1 -0.6,0.7 -0.9,1.8 -0.9,3.1 0,1.3 0.3,2.3 0.9,3 0.6,0.7 1.4,1.1 2.5,1.1 0.9,0 1.7,-0.2 2.4,-0.5 l 0,0.8 c -0.5,0.3 -1.3,0.5 -2.3,0.5 z"
       class="st0" /><path
       style="fill:#999999"
       inkscape:connector-curvature="0"
       id="path29"
       d="m 358.5,118.2 0.1,0.2 c -0.4,1.6 -0.9,3 -1.5,4.2 l -0.6,0 c 0.5,-1.6 0.8,-3.1 1,-4.4 l 1,0 z"
       class="st0" /><path
       style="fill:#999999"
       inkscape:connector-curvature="0"
       id="path31"
       d="m 373.4,117 c 0,1.1 -0.4,1.9 -1.2,2.5 -0.8,0.6 -1.8,0.9 -3.1,0.9 -1.6,0 -2.8,-0.2 -3.6,-0.5 l 0,-0.9 c 0.9,0.4 2.1,0.6 3.5,0.6 1.1,0 1.9,-0.2 2.5,-0.7 0.6,-0.5 0.9,-1.1 0.9,-1.9 0,-0.5 -0.1,-0.9 -0.3,-1.2 -0.2,-0.3 -0.5,-0.6 -1,-0.9 -0.5,-0.3 -1.1,-0.5 -2,-0.9 -1.3,-0.5 -2.2,-0.9 -2.7,-1.5 -0.5,-0.5 -0.8,-1.2 -0.8,-2.1 0,-1 0.4,-1.7 1.1,-2.4 0.8,-0.6 1.7,-0.9 2.9,-0.9 1.2,0 2.3,0.2 3.4,0.7 l -0.3,0.8 c -1.1,-0.4 -2.1,-0.7 -3.1,-0.7 -0.9,0 -1.7,0.2 -2.3,0.7 -0.6,0.5 -0.8,1 -0.8,1.8 0,0.5 0.1,0.9 0.3,1.2 0.2,0.3 0.5,0.6 0.8,0.8 0.4,0.2 1.1,0.5 2,0.9 1,0.3 1.8,0.7 2.3,1 0.5,0.3 0.9,0.7 1.1,1.1 0.3,0.5 0.4,1 0.4,1.6 z"
       class="st0" /><path
       style="fill:#999999"
       inkscape:connector-curvature="0"
       id="path33"
       d="m 382.6,120.3 0,-6.2 c 0,-1 -0.2,-1.7 -0.6,-2.1 -0.4,-0.4 -1,-0.7 -1.9,-0.7 -1.1,0 -2,0.3 -2.5,0.9 -0.5,0.6 -0.8,1.5 -0.8,2.8 l 0,5.3 -0.9,0 0,-13.7 0.9,0 0,4.4 0,1.2 0.1,0 c 0.4,-0.6 0.8,-1 1.4,-1.2 0.6,-0.2 1.2,-0.4 2,-0.4 2.2,0 3.3,1.2 3.3,3.5 l 0,6.2 -1,0 z"
       class="st0" /><path
       style="fill:#999999"
       inkscape:connector-curvature="0"
       id="path35"
       d="m 392.3,120.3 -0.2,-1.5 -0.1,0 c -0.5,0.6 -1,1.1 -1.5,1.3 -0.5,0.3 -1.1,0.4 -1.8,0.4 -0.9,0 -1.7,-0.2 -2.2,-0.7 -0.5,-0.5 -0.8,-1.1 -0.8,-2 0,-0.9 0.4,-1.7 1.2,-2.2 0.8,-0.5 1.9,-0.8 3.4,-0.8 l 1.8,-0.1 0,-0.6 c 0,-0.9 -0.2,-1.6 -0.6,-2.1 -0.4,-0.5 -1,-0.7 -1.8,-0.7 -0.9,0 -1.8,0.2 -2.8,0.7 l -0.3,-0.8 c 1,-0.5 2.1,-0.7 3.1,-0.7 1,0 1.8,0.3 2.4,0.8 0.6,0.5 0.8,1.4 0.8,2.5 l 0,6.4 -0.6,0 z m -3.5,-0.6 c 1,0 1.8,-0.3 2.4,-0.9 0.6,-0.6 0.9,-1.4 0.9,-2.4 l 0,-0.9 -1.7,0.1 c -1.3,0.1 -2.3,0.3 -2.9,0.6 -0.6,0.4 -0.9,0.9 -0.9,1.7 0,0.6 0.2,1.1 0.5,1.4 0.3,0.3 1,0.4 1.7,0.4 z"
       class="st0" /><path
       style="fill:#999999"
       inkscape:connector-curvature="0"
       id="path37"
       d="m 399.8,110.6 c 0.4,0 0.8,0 1.3,0.1 l -0.2,0.8 c -0.4,-0.1 -0.8,-0.1 -1.2,-0.1 -0.8,0 -1.5,0.3 -2,1 -0.5,0.7 -0.8,1.6 -0.8,2.6 l 0,5.3 -0.9,0 0,-9.6 0.7,0 0.1,1.7 0.1,0 c 0.4,-0.7 0.8,-1.2 1.3,-1.5 0.4,-0.2 1,-0.3 1.6,-0.3 z"
       class="st0" /><path
       style="fill:#999999"
       inkscape:connector-curvature="0"
       id="path39"
       d="m 406.9,120.5 c -1.4,0 -2.5,-0.4 -3.2,-1.3 -0.7,-0.9 -1.2,-2.1 -1.2,-3.6 0,-1.5 0.4,-2.7 1.1,-3.7 0.8,-0.9 1.8,-1.4 3,-1.4 1.1,0 2,0.4 2.7,1.2 0.7,0.8 1,1.9 1,3.2 l 0,0.7 -6.9,0 c 0,1.3 0.3,2.3 0.9,3 0.6,0.7 1.5,1 2.6,1 0.5,0 1,0 1.4,-0.1 0.4,-0.1 0.9,-0.2 1.6,-0.5 l 0,0.8 c -0.5,0.2 -1,0.4 -1.5,0.5 -0.4,0.1 -0.9,0.2 -1.5,0.2 z m -0.2,-9.2 c -0.9,0 -1.7,0.3 -2.2,0.9 -0.6,0.6 -0.9,1.5 -1,2.6 l 5.9,0 c 0,-1.1 -0.2,-2 -0.7,-2.6 -0.5,-0.6 -1.2,-0.9 -2,-0.9 z"
       class="st0" /><path
       style="fill:#999999"
       inkscape:connector-curvature="0"
       id="path41"
       d="m 423.4,120.3 -0.2,-1.5 -0.1,0 c -0.5,0.6 -1,1.1 -1.5,1.3 -0.5,0.3 -1.1,0.4 -1.8,0.4 -0.9,0 -1.7,-0.2 -2.2,-0.7 -0.5,-0.5 -0.8,-1.1 -0.8,-2 0,-0.9 0.4,-1.7 1.2,-2.2 0.8,-0.5 1.9,-0.8 3.4,-0.8 l 1.8,-0.1 0,-0.6 c 0,-0.9 -0.2,-1.6 -0.6,-2.1 -0.4,-0.5 -1,-0.7 -1.8,-0.7 -0.9,0 -1.8,0.2 -2.8,0.7 l -0.3,-0.8 c 1,-0.5 2.1,-0.7 3.1,-0.7 1,0 1.8,0.3 2.4,0.8 0.6,0.5 0.8,1.4 0.8,2.5 l 0,6.4 -0.6,0 z m -3.5,-0.6 c 1,0 1.8,-0.3 2.4,-0.9 0.6,-0.6 0.9,-1.4 0.9,-2.4 l 0,-0.9 -1.7,0.1 c -1.3,0.1 -2.3,0.3 -2.9,0.6 -0.6,0.4 -0.9,0.9 -0.9,1.7 0,0.6 0.2,1.1 0.5,1.4 0.3,0.3 1,0.4 1.7,0.4 z"
       class="st0" /><path
       style="fill:#999999"
       inkscape:connector-curvature="0"
       id="path43"
       d="m 433.8,120.3 0,-6.2 c 0,-1 -0.2,-1.7 -0.6,-2.1 -0.4,-0.4 -1,-0.7 -1.9,-0.7 -1.1,0 -2,0.3 -2.5,0.9 -0.5,0.6 -0.8,1.5 -0.8,2.8 l 0,5.3 -0.9,0 0,-9.6 0.7,0 0.2,1.3 0.1,0 c 0.6,-1 1.7,-1.5 3.3,-1.5 2.2,0 3.3,1.2 3.3,3.5 l 0,6.2 -0.9,0 z"
       class="st0" /><path
       style="fill:#999999"
       inkscape:connector-curvature="0"
       id="path45"
       d="m 441.3,110.6 c 0.7,0 1.3,0.1 1.8,0.4 0.5,0.3 1,0.7 1.4,1.3 l 0.1,0 c 0,-0.7 -0.1,-1.5 -0.1,-2.2 l 0,-3.4 0.9,0 0,13.7 -0.6,0 -0.2,-1.5 -0.1,0 c -0.7,1.1 -1.8,1.6 -3.1,1.6 -1.3,0 -2.3,-0.4 -3,-1.2 -0.7,-0.8 -1,-2 -1,-3.6 0,-1.7 0.3,-2.9 1,-3.8 0.7,-0.9 1.6,-1.3 2.9,-1.3 z m 0,0.7 c -1,0 -1.8,0.4 -2.4,1.1 -0.6,0.7 -0.8,1.8 -0.8,3.2 0,2.7 1.1,4.1 3.2,4.1 1.1,0 1.9,-0.3 2.4,-0.9 0.5,-0.6 0.8,-1.7 0.8,-3.1 l 0,-0.1 c 0,-1.5 -0.2,-2.5 -0.7,-3.2 -0.6,-0.7 -1.4,-1.1 -2.5,-1.1 z"
       class="st0" /><path
       style="fill:#999999"
       inkscape:connector-curvature="0"
       id="path47"
       d="m 460.5,117 c 0,1.1 -0.4,1.9 -1.2,2.5 -0.8,0.6 -1.8,0.9 -3.1,0.9 -1.6,0 -2.8,-0.2 -3.6,-0.5 l 0,-0.9 c 0.9,0.4 2.1,0.6 3.5,0.6 1.1,0 1.9,-0.2 2.5,-0.7 0.6,-0.5 0.9,-1.1 0.9,-1.9 0,-0.5 -0.1,-0.9 -0.3,-1.2 -0.2,-0.3 -0.5,-0.6 -1,-0.9 -0.5,-0.3 -1.1,-0.5 -2,-0.9 -1.3,-0.5 -2.2,-0.9 -2.7,-1.5 -0.5,-0.5 -0.8,-1.2 -0.8,-2.1 0,-1 0.4,-1.7 1.1,-2.4 0.8,-0.6 1.7,-0.9 2.9,-0.9 1.2,0 2.3,0.2 3.4,0.7 l -0.3,0.8 c -1.1,-0.4 -2.1,-0.7 -3.1,-0.7 -0.9,0 -1.7,0.2 -2.3,0.7 -0.6,0.5 -0.8,1 -0.8,1.8 0,0.5 0.1,0.9 0.3,1.2 0.2,0.3 0.5,0.6 0.8,0.8 0.4,0.2 1.1,0.5 2,0.9 1,0.3 1.8,0.7 2.3,1 0.5,0.3 0.9,0.7 1.1,1.1 0.3,0.5 0.4,1 0.4,1.6 z"
       class="st0" /><path
       style="fill:#999999"
       inkscape:connector-curvature="0"
       id="path49"
       d="m 466.8,120.5 c -1.4,0 -2.5,-0.4 -3.2,-1.3 -0.7,-0.9 -1.2,-2.1 -1.2,-3.6 0,-1.5 0.4,-2.7 1.1,-3.7 0.8,-0.9 1.8,-1.4 3,-1.4 1.1,0 2,0.4 2.7,1.2 0.7,0.8 1,1.9 1,3.2 l 0,0.7 -6.9,0 c 0,1.3 0.3,2.3 0.9,3 0.6,0.7 1.5,1 2.6,1 0.5,0 1,0 1.4,-0.1 0.4,-0.1 0.9,-0.2 1.6,-0.5 l 0,0.8 c -0.5,0.2 -1,0.4 -1.5,0.5 -0.4,0.1 -0.9,0.2 -1.5,0.2 z m -0.2,-9.2 c -0.9,0 -1.7,0.3 -2.2,0.9 -0.6,0.6 -0.9,1.5 -1,2.6 l 5.9,0 c 0,-1.1 -0.2,-2 -0.7,-2.6 -0.5,-0.6 -1.2,-0.9 -2,-0.9 z"
       class="st0" /><path
       style="fill:#999999"
       inkscape:connector-curvature="0"
       id="path51"
       d="m 473.7,120.3 -0.9,0 0,-13.7 0.9,0 0,13.7 z"
       class="st0" /><path
       style="fill:#999999"
       inkscape:connector-curvature="0"
       id="path53"
       d="m 480.5,111.5 -2.2,0 0,8.8 -0.9,0 0,-8.8 -1.8,0 0,-0.5 1.8,-0.3 0,-0.7 c 0,-1.2 0.2,-2 0.6,-2.6 0.4,-0.5 1.1,-0.8 2.1,-0.8 0.5,0 1.1,0.1 1.6,0.2 l -0.2,0.8 c -0.5,-0.1 -0.9,-0.2 -1.4,-0.2 -0.7,0 -1.2,0.2 -1.4,0.6 -0.2,0.4 -0.4,1.1 -0.4,2 l 0,0.9 2.2,0 0,0.6 z"
       class="st0" /><path
       style="fill:#999999"
       inkscape:connector-curvature="0"
       id="path55"
       d="m 481.5,115.8 0,-0.7 4.2,0 0,0.7 -4.2,0 z"
       class="st0" /><path
       style="fill:#999999"
       inkscape:connector-curvature="0"
       id="path57"
       d="m 497.6,120.3 -0.9,0 0,-6.3 -7.5,0 0,6.3 -0.9,0 0,-12.8 0.9,0 0,5.7 7.5,0 0,-5.7 0.9,0 0,12.8 z"
       class="st0" /><path
       style="fill:#999999"
       inkscape:connector-curvature="0"
       id="path59"
       d="m 509,115.5 c 0,1.6 -0.4,2.8 -1.1,3.7 -0.8,0.9 -1.8,1.3 -3.1,1.3 -0.8,0 -1.6,-0.2 -2.2,-0.6 -0.6,-0.4 -1.1,-1 -1.5,-1.7 -0.4,-0.7 -0.5,-1.6 -0.5,-2.6 0,-1.6 0.4,-2.8 1.1,-3.6 0.8,-0.9 1.8,-1.3 3.1,-1.3 1.3,0 2.3,0.4 3.1,1.3 0.7,0.8 1.1,2 1.1,3.5 z m -7.6,0 c 0,1.3 0.3,2.3 0.9,3.1 0.6,0.7 1.4,1.1 2.4,1.1 1,0 1.9,-0.4 2.4,-1.1 0.6,-0.7 0.9,-1.8 0.9,-3.1 0,-1.3 -0.3,-2.3 -0.9,-3.1 -0.6,-0.8 -1.4,-1.1 -2.5,-1.1 -1.1,0 -1.9,0.4 -2.4,1.1 -0.5,0.7 -0.8,1.8 -0.8,3.1 z"
       class="st0" /><path
       style="fill:#999999"
       inkscape:connector-curvature="0"
       id="path61"
       d="m 517.5,117.8 c 0,0.9 -0.3,1.5 -1,2 -0.7,0.5 -1.6,0.7 -2.8,0.7 -1.3,0 -2.3,-0.2 -3,-0.6 l 0,-0.9 c 1,0.5 2,0.7 3,0.7 0.9,0 1.7,-0.2 2.1,-0.5 0.5,-0.3 0.7,-0.7 0.7,-1.3 0,-0.5 -0.2,-0.9 -0.6,-1.2 -0.4,-0.3 -1,-0.7 -1.9,-1 -1,-0.3 -1.6,-0.6 -2,-0.9 -0.4,-0.2 -0.7,-0.5 -0.9,-0.8 -0.2,-0.3 -0.3,-0.7 -0.3,-1.1 0,-0.7 0.3,-1.3 0.9,-1.7 0.6,-0.4 1.4,-0.6 2.5,-0.6 1,0 2,0.2 2.9,0.6 l -0.3,0.8 c -0.9,-0.4 -1.8,-0.6 -2.6,-0.6 -0.8,0 -1.4,0.1 -1.9,0.4 -0.5,0.3 -0.7,0.6 -0.7,1.1 0,0.5 0.2,0.9 0.5,1.2 0.3,0.3 1,0.6 2.1,1 0.9,0.3 1.5,0.6 1.9,0.8 0.4,0.2 0.7,0.5 0.9,0.8 0.2,0.3 0.5,0.7 0.5,1.1 z"
       class="st0" /><path
       style="fill:#999999"
       inkscape:connector-curvature="0"
       id="path63"
       d="m 522.5,119.7 c 0.6,0 1,0 1.4,-0.1 l 0,0.7 c -0.4,0.1 -0.9,0.2 -1.5,0.2 -0.8,0 -1.5,-0.2 -1.9,-0.7 -0.4,-0.5 -0.6,-1.2 -0.6,-2.1 l 0,-6.2 -1.4,0 0,-0.5 1.4,-0.4 0.4,-2.2 0.4,0 0,2.3 2.8,0 0,0.8 -2.8,0 0,6 c 0,0.7 0.1,1.3 0.4,1.6 0.3,0.3 0.9,0.6 1.4,0.6 z"
       class="st0" /><path
       style="fill:#999999"
       inkscape:connector-curvature="0"
       id="path65"
       d="m 525.8,119.6 c 0,-0.6 0.2,-0.9 0.7,-0.9 0.5,0 0.7,0.3 0.7,0.9 0,0.6 -0.2,0.9 -0.7,0.9 -0.4,0 -0.7,-0.3 -0.7,-0.9 z"
       class="st0" /></g><g
     id="g67"
     style="fill:#999999;fill-opacity:1"><path
       style="fill:#999999;fill-opacity:1"
       inkscape:connector-curvature="0"
       id="path69"
       d="m 279.5,66.2 0,29 -11.6,0 0,-55.6 11.6,0 0,25.4 15.8,-25.4 13.8,0 -17.8,25.8 19.8,29.8 -14.7,0 -16.9,-29 z"
       class="st1" /><path
       style="fill:#999999;fill-opacity:1"
       inkscape:connector-curvature="0"
       id="path71"
       d="m 325.1,47.7 c -1.3,1.3 -2.9,1.9 -4.7,1.9 -1.8,0 -3.4,-0.6 -4.6,-1.9 -1.3,-1.3 -1.9,-2.9 -1.9,-4.7 0,-1.9 0.7,-3.4 2,-4.7 1.3,-1.3 2.9,-1.9 4.8,-1.9 1.8,0 3.3,0.6 4.6,1.9 1.3,1.3 1.9,2.9 1.9,4.7 -0.2,1.8 -0.9,3.4 -2.1,4.7 z M 315,55 l 10.8,-1.7 0,41.9 -10.8,0 0,-40.2 z"
       class="st1" /><path
       style="fill:#999999;fill-opacity:1"
       inkscape:connector-curvature="0"
       id="path73"
       d="m 358.7,68.7 c 0,-2.3 -0.3,-3.9 -0.8,-4.7 -0.5,-0.8 -1.5,-1.2 -2.8,-1.2 -1.1,0 -2.3,0.3 -3.6,1 -1.3,0.7 -2.6,1.6 -3.8,2.7 l 0,28.8 -10.7,0 0,-29.8 c 0,-3.6 -0.5,-6.8 -1.4,-9.6 l 9.5,-2.7 c 1,1.7 1.5,3.4 1.5,5.1 0.8,-0.6 1.6,-1.1 2.3,-1.6 0.7,-0.5 1.5,-1 2.4,-1.4 1.1,-0.6 2.2,-1 3.5,-1.3 1.3,-0.3 2.6,-0.4 3.8,-0.4 2.3,0 4.3,0.5 6.1,1.6 1.8,1.1 3,2.5 3.7,4.3 0.5,1.4 0.8,3.3 0.8,5.8 l 0,29.9 -10.4,0 0,-26.5 z"
       class="st1" /><path
       style="fill:#999999;fill-opacity:1"
       inkscape:connector-curvature="0"
       id="path75"
       d="m 392.3,96.2 c -2.8,0 -5.1,-0.5 -7.2,-1.6 -2,-1.1 -3.4,-2.5 -4,-4.3 -0.2,-0.4 -0.3,-0.8 -0.4,-1.2 -0.1,-0.3 -0.2,-0.7 -0.2,-1.2 0,-0.5 -0.1,-1 -0.1,-1.6 0,-0.6 0,-1.4 0,-2.3 l 0,-22.2 -4.1,0 0,-7.4 4.1,0 c 0,-2 0,-3.8 0,-5.2 0,-1.4 0.1,-2.9 0.4,-4.5 l 11,-2.7 c -0.2,1.9 -0.4,3.9 -0.5,6 -0.1,2.2 -0.2,4.3 -0.2,6.4 l 9.6,0 -2.7,7.4 -6.9,0 0,20.3 c 0,1.3 0.1,2.3 0.2,3.2 0.1,0.8 0.4,1.5 0.7,2 0.3,0.5 0.8,0.8 1.4,1 0.6,0.2 1.4,0.3 2.3,0.3 0.5,0 1,-0.1 1.6,-0.2 0.6,-0.1 1.3,-0.3 2.3,-0.6 l 1.4,6.5 c -3,1.2 -5.9,1.9 -8.7,1.9 z"
       class="st1" /><path
       style="fill:#999999;fill-opacity:1"
       inkscape:connector-curvature="0"
       id="path77"
       d="m 440.2,83.6 c -0.8,2.5 -2.1,4.8 -3.9,6.8 -1.5,1.8 -3.4,3.1 -5.5,4.2 -2.1,1 -4.8,1.5 -8,1.5 -2.8,0 -5.3,-0.5 -7.5,-1.5 -2.3,-1 -4.2,-2.4 -5.8,-4.3 -1.6,-1.8 -2.8,-4.1 -3.7,-6.7 -0.9,-2.6 -1.3,-5.5 -1.3,-8.7 0,-3.2 0.4,-6.1 1.3,-8.8 0.9,-2.7 2.1,-4.9 3.7,-6.8 1.6,-1.9 3.5,-3.3 5.8,-4.4 2.3,-1 4.8,-1.5 7.5,-1.5 5.8,0 10.4,2.1 13.9,6.2 1.7,1.9 2.8,4.1 3.6,6.4 0.7,2.3 1.1,5.2 1.1,8.6 0.1,3.5 -0.4,6.5 -1.2,9 z m -12.5,-20 c -1.1,-1.4 -2.7,-2.2 -4.6,-2.2 -1.3,0 -2.4,0.4 -3.4,1.1 -1,0.7 -1.7,1.8 -2.1,3 -0.4,1.1 -0.7,2.3 -0.8,3.8 -0.2,1.5 -0.3,3.2 -0.3,5.3 0,4.6 0.5,8.1 1.4,10.3 0.5,1.1 1.2,2 2.3,2.5 1,0.6 2.1,0.8 3.2,0.8 2.4,0 4.1,-1.1 5.1,-3.3 1,-2.2 1.5,-5.7 1.5,-10.5 -0.1,-5.3 -0.9,-8.9 -2.3,-10.8 z"
       class="st1" /></g><g
     id="Cloud"><linearGradient
       y2="94.669403"
       x2="110.9694"
       y1="86.915901"
       x1="22.0667"
       gradientUnits="userSpaceOnUse"
       id="SVGID_1_"><stop
         id="stop81"
         style="stop-color:#FEEC7F"
         offset="0" /><stop
         id="stop83"
         style="stop-color:#F3A21B"
         offset="1" /></linearGradient><path
       inkscape:connector-curvature="0"
       style="fill:url(#SVGID_1_)"
       id="path85"
       d="m 110.8,95.5 -22.4,0 -17.6,0 C 64.6,95.3 57.7,94.8 51.9,93.7 49,93.2 46.3,92.5 43.7,91.8 42.4,91.4 41.2,91.1 40,90.7 38.8,90.3 37.7,89.9 36.6,89.5 35.5,89.1 34.5,88.7 33.5,88.3 32.5,87.9 31.6,87.4 30.8,87 29.1,86.1 27.6,85.4 26.5,84.7 25.3,84 24.4,83.4 23.8,83 c -0.6,-0.4 -0.9,-0.6 -0.9,-0.6 0,0 0.3,0.2 1,0.6 0.6,0.4 1.5,0.9 2.7,1.6 1.2,0.7 2.7,1.4 4.4,2.2 1.7,0.8 3.7,1.6 5.9,2.3 1.1,0.4 2.2,0.8 3.4,1.1 1.2,0.4 2.4,0.7 3.7,1 2.6,0.6 5.3,1.2 8.2,1.7 5.7,1 11.9,1.6 18.1,1.8 2.9,0.2 40.5,0.8 40.5,0.8 z"
       class="st2" /><linearGradient
       gradientTransform="matrix(-1,0,0,1,5066.3213,0)"
       y2="99.990196"
       x2="4900.6426"
       y1="14.9202"
       x1="4900.6426"
       gradientUnits="userSpaceOnUse"
       id="SVGID_2_"><stop
         id="stop88"
         style="stop-color:#FEEC7F"
         offset="0" /><stop
         id="stop90"
         style="stop-color:#FEE97B"
         offset="0.1894" /><stop
         id="stop92"
         style="stop-color:#FCDF6E"
         offset="0.3937" /><stop
         id="stop94"
         style="stop-color:#FACF58"
         offset="0.6052" /><stop
         id="stop96"
         style="stop-color:#F6B93A"
         offset="0.8201" /><stop
         id="stop98"
         style="stop-color:#F3A21B"
         offset="1" /></linearGradient><path
       inkscape:connector-curvature="0"
       style="fill:url(#SVGID_2_)"
       id="path100"
       d="m 232.4,63.2 c 0,-16 -13.2,-31.4 -28.9,-31.4 -12.1,0 -25.8,1.5 -52,34.8 -33.9,42.8 -51.5,21.9 -52.5,20.5 2.5,4.9 7.5,8.4 13.4,8.4 l 91.1,0 c 15.9,0 28.9,-16.3 28.9,-32.3 z"
       class="st3" /><linearGradient
       gradientTransform="matrix(-1,0,0,1,5066.3213,0)"
       y2="79.884697"
       x2="4919.2451"
       y1="79.884697"
       x1="5002.2505"
       gradientUnits="userSpaceOnUse"
       id="SVGID_3_"><stop
         id="stop103"
         style="stop-color:#FEEC7F"
         offset="0" /><stop
         id="stop105"
         style="stop-color:#FDE373"
         offset="0.1105" /><stop
         id="stop107"
         style="stop-color:#F6B434"
         offset="0.7142" /><stop
         id="stop109"
         style="stop-color:#F3A21B"
         offset="1" /></linearGradient><path
       inkscape:connector-curvature="0"
       style="fill:url(#SVGID_3_)"
       id="path111"
       d="m 112.5,95.5 c -8.3,0 -15.1,-6.7 -15.1,-15 0,-8.3 6.9,-16.2 15,-16.2 15.9,0 18.1,14.4 42.9,21.5 16.1,4.6 48.1,9.7 48.1,9.7 l -90.9,0 z"
       class="st4" /><linearGradient
       y2="94.173897"
       x2="162.5619"
       y1="7.8836002"
       x1="162.5619"
       gradientUnits="userSpaceOnUse"
       id="SVGID_4_"><stop
         id="stop114"
         style="stop-color:#FEEC7F"
         offset="0" /><stop
         id="stop116"
         style="stop-color:#F7BC3F"
         offset="0.6144" /><stop
         id="stop118"
         style="stop-color:#F3A21B"
         offset="1" /></linearGradient><path
       inkscape:connector-curvature="0"
       style="fill:url(#SVGID_4_)"
       id="path120"
       d="m 203.4,95.5 c -3.2,-1.3 -15.7,-5.4 -17.8,-19 -2.1,-13.8 6.2,-21.2 3.6,-37.1 -2.3,-14 -14,-20.9 -25.7,-23.3 -6,-1.2 -12.6,-0.9 -19.3,1.5 -18.8,6.8 -25.1,28.2 -21.6,42.9 2.9,12.1 14.9,24 43.7,29.1 24.6,4.3 26.6,4.7 37.1,5.9 z"
       class="st5" /><linearGradient
       y2="96.480904"
       x2="151.17619"
       y1="34.901901"
       x1="151.17619"
       gradientUnits="userSpaceOnUse"
       id="SVGID_5_"><stop
         id="stop123"
         style="stop-color:#F9C32E"
         offset="0" /><stop
         id="stop125"
         style="stop-color:#F19819"
         offset="0.5169" /><stop
         id="stop127"
         style="stop-color:#E96C04"
         offset="1" /></linearGradient><path
       inkscape:connector-curvature="0"
       style="fill:url(#SVGID_5_)"
       id="path129"
       d="m 185.6,76.5 c -2.1,-13.8 6.2,-21.2 3.6,-37.1 -0.3,-1.8 -0.8,-3.5 -1.3,-5.1 -9.1,3.6 -20.5,12 -36.4,32.2 -33.9,42.9 -51.5,22 -52.5,20.6 2.5,4.9 7.6,8.4 13.5,8.4 l 91,0 c -3.3,-1.3 -15.8,-5.4 -17.9,-19 z"
       class="st6" /><linearGradient
       y2="82.415604"
       x2="183.95"
       y1="82.415604"
       x1="107.0426"
       gradientUnits="userSpaceOnUse"
       id="SVGID_6_"><stop
         id="stop132"
         style="stop-color:#F7B425"
         offset="0" /><stop
         id="stop134"
         style="stop-color:#F3A620"
         offset="6.246364e-02" /><stop
         id="stop136"
         style="stop-color:#EC8816"
         offset="0.2131" /><stop
         id="stop138"
         style="stop-color:#E6720E"
         offset="0.3736" /><stop
         id="stop140"
         style="stop-color:#E26208"
         offset="0.5466" /><stop
         id="stop142"
         style="stop-color:#E05805"
         offset="0.7407" /><stop
         id="stop144"
         style="stop-color:#DF5504"
         offset="1" /></linearGradient><path
       inkscape:connector-curvature="0"
       style="fill:url(#SVGID_6_)"
       id="path146"
       d="m 126.5,69.3 c 4.1,7.6 21.3,19.9 76.9,26.2 l 0,0 c -44,-5.7 -64.5,-14 -76.9,-26.2 z"
       class="st7" /><linearGradient
       gradientTransform="matrix(-1,0,0,1,5066.3213,0)"
       y2="98.322998"
       x2="4987.7847"
       y1="86.900803"
       x1="4987.7847"
       gradientUnits="userSpaceOnUse"
       id="SVGID_7_"><stop
         id="stop149"
         style="stop-color:#FEEC7F"
         offset="0" /><stop
         id="stop151"
         style="stop-color:#F7BD40"
         offset="0.6058" /><stop
         id="stop153"
         style="stop-color:#F3A21B"
         offset="1" /></linearGradient><path
       inkscape:connector-curvature="0"
       style="fill:url(#SVGID_7_)"
       id="path155"
       d="m 70.9,95.5 c -1.7,0 -3,-1.4 -3,-3.1 0,-1.7 1.4,-3.3 3,-3.3 3.2,0 3.7,3.5 8.7,4.9 3.2,0.9 9.6,1.4 9.6,1.4 l -18.3,0 z"
       class="st8" /><linearGradient
       y2="91.652298"
       x2="101.5385"
       y1="69.072502"
       x1="101.5385"
       gradientUnits="userSpaceOnUse"
       id="SVGID_8_"><stop
         id="stop158"
         style="stop-color:#FEEC7F"
         offset="0" /><stop
         id="stop160"
         style="stop-color:#FEEA7C"
         offset="0.2301" /><stop
         id="stop162"
         style="stop-color:#FCE271"
         offset="0.4238" /><stop
         id="stop164"
         style="stop-color:#FBD560"
         offset="0.6043" /><stop
         id="stop166"
         style="stop-color:#F8C347"
         offset="0.7768" /><stop
         id="stop168"
         style="stop-color:#F4AC28"
         offset="0.9421" /><stop
         id="stop170"
         style="stop-color:#F3A21B"
         offset="1" /></linearGradient><path
       inkscape:connector-curvature="0"
       style="fill:url(#SVGID_8_)"
       id="path172"
       d="m 112.5,95.5 c -4.3,0 -8.4,-2 -11.2,-4.9 -7.9,-3 -9.2,-7.7 -15.1,-7.7 -3.3,0 -6,3.2 -6,6.5 0,3.3 2.7,6.1 6,6.1 l 18.1,0 c 3.8,0 18.6,0 18.6,0 0,0 -0.1,0 -0.3,0 l -10.1,0 z"
       class="st9" /><linearGradient
       y2="77.622498"
       x2="206.0636"
       y1="34.185902"
       x1="206.0636"
       gradientUnits="userSpaceOnUse"
       id="SVGID_9_"><stop
         id="stop175"
         style="stop-color:#F9C32E"
         offset="0" /><stop
         id="stop177"
         style="stop-color:#F19819"
         offset="0.5169" /><stop
         id="stop179"
         style="stop-color:#E96C04"
         offset="1" /></linearGradient><path
       inkscape:connector-curvature="0"
       style="fill:url(#SVGID_9_)"
       id="path181"
       d="m 219.3,37.3 c -1,-0.8 -2.1,-1.5 -3.1,-2.1 -1.1,-0.6 -2.3,-1.2 -3.7,-1.6 -2.6,-1 -5.3,-1.5 -7.9,-1.8 -0.4,0 -0.7,0 -1.1,0 -4.7,0 -9.7,0.2 -15.6,2.5 0.6,1.6 1.1,3.3 1.3,5.1 1.8,11 -1.7,18.1 -3.3,25.9 7.7,-6.2 22.5,-6.4 30.8,-5.9 l 0.9,0 c 0.9,0 1.7,-0.1 2.4,-0.3 8.1,-2.1 8.6,-14.4 -0.7,-21.8 z"
       class="st10" /><path
       style="opacity:0.47000002;fill:#e35702"
       inkscape:connector-curvature="0"
       id="path183"
       d="m 186,65.2 c -0.7,3.4 -1,7.1 -0.4,11.3 2.1,13.6 14.4,17.4 17.8,19 l 0.1,0 c 5.5,0 10.6,-2 14.9,-5.1 -1,-0.9 -6.4,-5.7 -8,-10.6 -5.1,-15.5 6.5,-20.1 7.2,-20.4 -5.6,-0.1 -23.9,-0.3 -31.6,5.8 z"
       class="st11" /><linearGradient
       y2="84.644997"
       x2="191.7408"
       y1="66.133598"
       x1="204.45731"
       gradientUnits="userSpaceOnUse"
       id="SVGID_10_"><stop
         id="stop186"
         style="stop-color:#E66A09"
         offset="0" /><stop
         id="stop188"
         style="stop-color:#E66A09"
         offset="1" /></linearGradient><path
       inkscape:connector-curvature="0"
       style="fill:url(#SVGID_10_)"
       id="path190"
       d="m 185.6,76.5 c 1.8,11.8 11.7,17.2 17.8,19 -3.5,-1.7 -12.5,-7.2 -12.4,-16.7 0.3,-18.6 19.8,-19.3 19.8,-19.3 l 0,0 c -8.2,0 -18.7,0.9 -24.9,5.7 -0.8,3.5 -1,7.1 -0.3,11.3 z"
       class="st12" /><linearGradient
       gradientTransform="matrix(-1,0,0,1,5066.3213,0)"
       y2="95.6651"
       x2="4958.7383"
       y1="84.681297"
       x1="4958.7383"
       gradientUnits="userSpaceOnUse"
       id="SVGID_11_"><stop
         id="stop193"
         style="stop-color:#F7B425"
         offset="0" /><stop
         id="stop195"
         style="stop-color:#F3A620"
         offset="6.246364e-02" /><stop
         id="stop197"
         style="stop-color:#EC8816"
         offset="0.2131" /><stop
         id="stop199"
         style="stop-color:#E6720E"
         offset="0.3736" /><stop
         id="stop201"
         style="stop-color:#E26208"
         offset="0.5466" /><stop
         id="stop203"
         style="stop-color:#E05805"
         offset="0.7407" /><stop
         id="stop205"
         style="stop-color:#DF5504"
         offset="1" /></linearGradient><path
       inkscape:connector-curvature="0"
       style="fill:url(#SVGID_11_)"
       id="path207"
       d="m 116.2,95.5 c -3.5,-0.1 -12.5,-1.2 -17.3,-8.4 2.6,5.3 7.8,8.4 13.7,8.4 l 3.6,0 z"
       class="st13" /><linearGradient
       y2="74.4655"
       x2="193.79961"
       y1="25.169201"
       x1="193.79961"
       gradientUnits="userSpaceOnUse"
       id="SVGID_12_"><stop
         id="stop210"
         style="stop-color:#F7B425"
         offset="0" /><stop
         id="stop212"
         style="stop-color:#EF961A"
         offset="0.3526" /><stop
         id="stop214"
         style="stop-color:#DF5504"
         offset="1" /></linearGradient><path
       inkscape:connector-curvature="0"
       style="fill:url(#SVGID_12_)"
       id="path216"
       d="m 184.5,76.5 c -2.1,-13.8 6.9,-21.2 4.3,-37.1 -0.3,-1.8 -1,-5.1 -1,-5.1 0.6,1.6 1.1,3.3 1.3,5.1 2.6,15.9 -5.7,23.3 -3.6,37.1 2.1,13.6 14.6,17.7 17.8,19 0.1,0 -16.5,-4 -18.8,-19 z"
       class="st14" /><path
       style="fill:#eb7808"
       inkscape:connector-curvature="0"
       id="path218"
       d="m 110.8,95.5 -22.4,0 -17.6,0 c -1.2,0 -1.9,-0.8 -1.9,-0.8 1.1,0.1 41.9,0.8 41.9,0.8 z"
       class="st15" /><path
       style="fill:#e35702"
       inkscape:connector-curvature="0"
       id="path220"
       d="m 112.3,95.5 -24.2,0 c -2.8,0 -4.2,-0.5 -4.2,-0.5 11.8,0.2 28.4,0.5 28.4,0.5 z"
       class="st16" /><path
       style="fill:#e35702"
       inkscape:connector-curvature="0"
       id="path222"
       d="m 186,65.2 c 7.7,-6.2 23.1,-6.4 31.7,-5.8 0,0 -12,-0.3 -20.3,1.5 -8.4,1.9 -11.4,4.3 -11.4,4.3 z"
       class="st16" /></g></svg>